<?xml version="1.0" encoding="utf-8"?><!-- Uploaded to: SVG Repo, www.svgrepo.com, Generator: SVG Repo Mixer Tools -->
<svg fill="#000000" width="800px" height="800px" viewBox="0 0 24 24" id="sign-in" data-name="Flat Color" xmlns="http://www.w3.org/2000/svg" class="icon flat-color"><path id="secondary" d="M7,21H4a2,2,0,0,1-2-2V5A2,2,0,0,1,4,3H7A1,1,0,0,1,7,5H4V19H7a1,1,0,0,1,0,2Z" style="fill: rgb(44, 169, 188);"></path><path id="primary" d="M21,9H15.84a2,2,0,0,0,.46-1.44,2,2,0,0,0-.69-1.37l-1.52-1.3h0a2,2,0,0,0-2.82.22L6.48,10.7a2,2,0,0,0,0,2.6l4.79,5.59a2,2,0,0,0,2.82.22l1.52-1.3a2,2,0,0,0,.69-1.37A2,2,0,0,0,15.84,15H21a1,1,0,0,0,1-1V10A1,1,0,0,0,21,9Z" style="fill: rgb(0, 0, 0);"></path></svg>